TITLE ""
FILE "TOEIC LR Kinnojyukugo_08.mp3" MP3
  TRACK 01 AUDIO
    TITLE "TOEIC LR Kinnojyukugo_08_001"
    INDEX 01 00:00:00
  TRACK 02 AUDIO
    TITLE "TOEIC LR Kinnojyukugo_08_002"
    INDEX 01 00:00:12
  TRACK 03 AUDIO
    TITLE "TOEIC LR Kinnojyukugo_08_003"
    INDEX 01 00:01:12
  TRACK 04 AUDIO
    TITLE "TOEIC LR Kinnojyukugo_08_004"
    INDEX 01 00:01:63
  TRACK 05 AUDIO
    TITLE "TOEIC LR Kinnojyukugo_08_005"
    INDEX 01 00:03:22
  TRACK 06 AUDIO
    TITLE "TOEIC LR Kinnojyukugo_08_006"
    INDEX 01 00:03:69
  TRACK 07 AUDIO
    TITLE "TOEIC LR Kinnojyukugo_08_007"
    INDEX 01 00:05:19
  TRACK 08 AUDIO
    TITLE "TOEIC LR Kinnojyukugo_08_008"
    INDEX 01 00:05:70
  TRACK 09 AUDIO
    TITLE "TOEIC LR Kinnojyukugo_08_009"
    INDEX 01 00:07:22
  TRACK 10 AUDIO
    TITLE "TOEIC LR Kinnojyukugo_08_010"
    INDEX 01 00:08:37
  TRACK 11 AUDIO
    TITLE "TOEIC LR Kinnojyukugo_08_011"
    INDEX 01 00:09:46
  TRACK 12 AUDIO
    TITLE "TOEIC LR Kinnojyukugo_08_012"
    INDEX 01 00:10:20
  TRACK 13 AUDIO
    TITLE "TOEIC LR Kinnojyukugo_08_013"
    INDEX 01 00:11:51
  TRACK 14 AUDIO
    TITLE "TOEIC LR Kinnojyukugo_08_014"
    INDEX 01 00:12:25
  TRACK 15 AUDIO
    TITLE "TOEIC LR Kinnojyukugo_08_015"
    INDEX 01 00:13:52
  TRACK 16 AUDIO
    TITLE "TOEIC LR Kinnojyukugo_08_016"
    INDEX 01 00:14:28
  TRACK 17 AUDIO
    TITLE "TOEIC LR Kinnojyukugo_08_017"
    INDEX 01 00:16:11
  TRACK 18 AUDIO
    TITLE "TOEIC LR Kinnojyukugo_08_018"
    INDEX 01 00:17:24
  TRACK 19 AUDIO
    TITLE "TOEIC LR Kinnojyukugo_08_019"
    INDEX 01 00:18:36
  TRACK 20 AUDIO
    TITLE "TOEIC LR Kinnojyukugo_08_020"
    INDEX 01 00:19:10
  TRACK 21 AUDIO
    TITLE "TOEIC LR Kinnojyukugo_08_021"
    INDEX 01 00:20:48
  TRACK 22 AUDIO
    TITLE "TOEIC LR Kinnojyukugo_08_022"
    INDEX 01 00:21:22
  TRACK 23 AUDIO
    TITLE "TOEIC LR Kinnojyukugo_08_023"
    INDEX 01 00:23:15
  TRACK 24 AUDIO
    TITLE "TOEIC LR Kinnojyukugo_08_024"
    INDEX 01 00:23:64
  TRACK 25 AUDIO
    TITLE "TOEIC LR Kinnojyukugo_08_025"
    INDEX 01 00:25:10
  TRACK 26 AUDIO
    TITLE "TOEIC LR Kinnojyukugo_08_026"
    INDEX 01 00:26:27
  TRACK 27 AUDIO
    TITLE "TOEIC LR Kinnojyukugo_08_027"
    INDEX 01 00:27:31
  TRACK 28 AUDIO
    TITLE "TOEIC LR Kinnojyukugo_08_028"
    INDEX 01 00:28:05
  TRACK 29 AUDIO
    TITLE "TOEIC LR Kinnojyukugo_08_029"
    INDEX 01 00:29:41
  TRACK 30 AUDIO
    TITLE "TOEIC LR Kinnojyukugo_08_030"
    INDEX 01 00:30:13
  TRACK 31 AUDIO
    TITLE "TOEIC LR Kinnojyukugo_08_031"
    INDEX 01 00:31:42
  TRACK 32 AUDIO
    TITLE "TOEIC LR Kinnojyukugo_08_032"
    INDEX 01 00:32:14
  TRACK 33 AUDIO
    TITLE "TOEIC LR Kinnojyukugo_08_033"
    INDEX 01 00:33:51
  TRACK 34 AUDIO
    TITLE "TOEIC LR Kinnojyukugo_08_034"
    INDEX 01 00:34:62
  TRACK 35 AUDIO
    TITLE "TOEIC LR Kinnojyukugo_08_035"
    INDEX 01 00:35:64
  TRACK 36 AUDIO
    TITLE "TOEIC LR Kinnojyukugo_08_036"
    INDEX 01 00:36:39
  TRACK 37 AUDIO
    TITLE "TOEIC LR Kinnojyukugo_08_037"
    INDEX 01 00:38:21
  TRACK 38 AUDIO
    TITLE "TOEIC LR Kinnojyukugo_08_038"
    INDEX 01 00:38:64
  TRACK 39 AUDIO
    TITLE "TOEIC LR Kinnojyukugo_08_039"
    INDEX 01 00:40:18
  TRACK 40 AUDIO
    TITLE "TOEIC LR Kinnojyukugo_08_040"
    INDEX 01 00:40:67
  TRACK 41 AUDIO
    TITLE "TOEIC LR Kinnojyukugo_08_041"
    INDEX 01 00:42:26
  TRACK 42 AUDIO
    TITLE "TOEIC LR Kinnojyukugo_08_042"
    INDEX 01 00:43:40
  TRACK 43 AUDIO
    TITLE "TOEIC LR Kinnojyukugo_08_043"
    INDEX 01 00:44:37
  TRACK 44 AUDIO
    TITLE "TOEIC LR Kinnojyukugo_08_044"
    INDEX 01 00:45:13
  TRACK 45 AUDIO
    TITLE "TOEIC LR Kinnojyukugo_08_045"
    INDEX 01 00:46:38
  TRACK 46 AUDIO
    TITLE "TOEIC LR Kinnojyukugo_08_046"
    INDEX 01 00:47:10
  TRACK 47 AUDIO
    TITLE "TOEIC LR Kinnojyukugo_08_047"
    INDEX 01 00:48:66
  TRACK 48 AUDIO
    TITLE "TOEIC LR Kinnojyukugo_08_048"
    INDEX 01 00:49:42
  TRACK 49 AUDIO
    TITLE "TOEIC LR Kinnojyukugo_08_049"
    INDEX 01 00:51:45
  TRACK 50 AUDIO
    TITLE "TOEIC LR Kinnojyukugo_08_050"
    INDEX 01 00:52:58
  TRACK 51 AUDIO
    TITLE "TOEIC LR Kinnojyukugo_08_051"
    INDEX 01 00:53:67
  TRACK 52 AUDIO
    TITLE "TOEIC LR Kinnojyukugo_08_052"
    INDEX 01 00:54:41
  TRACK 53 AUDIO
    TITLE "TOEIC LR Kinnojyukugo_08_053"
    INDEX 01 00:56:15
  TRACK 54 AUDIO
    TITLE "TOEIC LR Kinnojyukugo_08_054"
    INDEX 01 00:56:66
  TRACK 55 AUDIO
    TITLE "TOEIC LR Kinnojyukugo_08_055"
    INDEX 01 00:58:39
  TRACK 56 AUDIO
    TITLE "TOEIC LR Kinnojyukugo_08_056"
    INDEX 01 00:59:15
  TRACK 57 AUDIO
    TITLE "TOEIC LR Kinnojyukugo_08_057"
    INDEX 01 01:00:58
  TRACK 58 AUDIO
    TITLE "TOEIC LR Kinnojyukugo_08_058"
    INDEX 01 01:01:71
  TRACK 59 AUDIO
    TITLE "TOEIC LR Kinnojyukugo_08_059"
    INDEX 01 01:03:09
  TRACK 60 AUDIO
    TITLE "TOEIC LR Kinnojyukugo_08_060"
    INDEX 01 01:03:58
  TRACK 61 AUDIO
    TITLE "TOEIC LR Kinnojyukugo_08_061"
    INDEX 01 01:05:35
  TRACK 62 AUDIO
    TITLE "TOEIC LR Kinnojyukugo_08_062"
    INDEX 01 01:06:03
  TRACK 63 AUDIO
    TITLE "TOEIC LR Kinnojyukugo_08_063"
    INDEX 01 01:07:46
  TRACK 64 AUDIO
    TITLE "TOEIC LR Kinnojyukugo_08_064"
    INDEX 01 01:08:20
  TRACK 65 AUDIO
    TITLE "TOEIC LR Kinnojyukugo_08_065"
    INDEX 01 01:09:68
  TRACK 66 AUDIO
    TITLE "TOEIC LR Kinnojyukugo_08_066"
    INDEX 01 01:11:04
  TRACK 67 AUDIO
    TITLE "TOEIC LR Kinnojyukugo_08_067"
    INDEX 01 01:12:18
  TRACK 68 AUDIO
    TITLE "TOEIC LR Kinnojyukugo_08_068"
    INDEX 01 01:12:69
  TRACK 69 AUDIO
    TITLE "TOEIC LR Kinnojyukugo_08_069"
    INDEX 01 01:14:46
  TRACK 70 AUDIO
    TITLE "TOEIC LR Kinnojyukugo_08_070"
    INDEX 01 01:15:20
  TRACK 71 AUDIO
    TITLE "TOEIC LR Kinnojyukugo_08_071"
    INDEX 01 01:16:62
  TRACK 72 AUDIO
    TITLE "TOEIC LR Kinnojyukugo_08_072"
    INDEX 01 01:17:38
  TRACK 73 AUDIO
    TITLE "TOEIC LR Kinnojyukugo_08_073"
    INDEX 01 01:19:12
  TRACK 74 AUDIO
    TITLE "TOEIC LR Kinnojyukugo_08_074"
    INDEX 01 01:20:25
  TRACK 75 AUDIO
    TITLE "TOEIC LR Kinnojyukugo_08_075"
    INDEX 01 01:21:34
  TRACK 76 AUDIO
    TITLE "TOEIC LR Kinnojyukugo_08_076"
    INDEX 01 01:22:10
  TRACK 77 AUDIO
    TITLE "TOEIC LR Kinnojyukugo_08_077"
    INDEX 01 01:23:51
  TRACK 78 AUDIO
    TITLE "TOEIC LR Kinnojyukugo_08_078"
    INDEX 01 01:24:25
  TRACK 79 AUDIO
    TITLE "TOEIC LR Kinnojyukugo_08_079"
    INDEX 01 01:26:02
  TRACK 80 AUDIO
    TITLE "TOEIC LR Kinnojyukugo_08_080"
    INDEX 01 01:26:53
  TRACK 81 AUDIO
    TITLE "TOEIC LR Kinnojyukugo_08_081"
    INDEX 01 01:28:19
  TRACK 82 AUDIO
    TITLE "TOEIC LR Kinnojyukugo_08_082"
    INDEX 01 01:29:30
  TRACK 83 AUDIO
    TITLE "TOEIC LR Kinnojyukugo_08_083"
    INDEX 01 01:30:35
  TRACK 84 AUDIO
    TITLE "TOEIC LR Kinnojyukugo_08_084"
    INDEX 01 01:31:09
  TRACK 85 AUDIO
    TITLE "TOEIC LR Kinnojyukugo_08_085"
    INDEX 01 01:32:48
  TRACK 86 AUDIO
    TITLE "TOEIC LR Kinnojyukugo_08_086"
    INDEX 01 01:33:26
  TRACK 87 AUDIO
    TITLE "TOEIC LR Kinnojyukugo_08_087"
    INDEX 01 01:34:58
  TRACK 88 AUDIO
    TITLE "TOEIC LR Kinnojyukugo_08_088"
    INDEX 01 01:35:34
  TRACK 89 AUDIO
    TITLE "TOEIC LR Kinnojyukugo_08_089"
    INDEX 01 01:36:61
  TRACK 90 AUDIO
    TITLE "TOEIC LR Kinnojyukugo_08_090"
    INDEX 01 01:37:74
  TRACK 91 AUDIO
    TITLE "TOEIC LR Kinnojyukugo_08_091"
    INDEX 01 01:39:05
  TRACK 92 AUDIO
    TITLE "TOEIC LR Kinnojyukugo_08_092"
    INDEX 01 01:39:58
  TRACK 93 AUDIO
    TITLE "TOEIC LR Kinnojyukugo_08_093"
    INDEX 01 01:41:41
  TRACK 94 AUDIO
    TITLE "TOEIC LR Kinnojyukugo_08_094"
    INDEX 01 01:42:19
  TRACK 95 AUDIO
    TITLE "TOEIC LR Kinnojyukugo_08_095"
    INDEX 01 01:43:59
  TRACK 96 AUDIO
    TITLE "TOEIC LR Kinnojyukugo_08_096"
    INDEX 01 01:44:35
  TRACK 97 AUDIO
    TITLE "TOEIC LR Kinnojyukugo_08_097"
    INDEX 01 01:45:70
  TRACK 98 AUDIO
    TITLE "TOEIC LR Kinnojyukugo_08_098"
    INDEX 01 01:47:08
  TRACK 99 AUDIO
    TITLE "TOEIC LR Kinnojyukugo_08_099"
    INDEX 01 01:48:10
  TRACK 100 AUDIO
    TITLE "TOEIC LR Kinnojyukugo_08_100"
    INDEX 01 01:48:57
  TRACK 101 AUDIO
    TITLE "TOEIC LR Kinnojyukugo_08_101"
    INDEX 01 01:50:24
  TRACK 102 AUDIO
    TITLE "TOEIC LR Kinnojyukugo_08_102"
    INDEX 01 01:51:00
  TRACK 103 AUDIO
    TITLE "TOEIC LR Kinnojyukugo_08_103"
    INDEX 01 01:52:45
  TRACK 104 AUDIO
    TITLE "TOEIC LR Kinnojyukugo_08_104"
    INDEX 01 01:53:21
  TRACK 105 AUDIO
    TITLE "TOEIC LR Kinnojyukugo_08_105"
    INDEX 01 01:54:51
  TRACK 106 AUDIO
    TITLE "TOEIC LR Kinnojyukugo_08_106"
    INDEX 01 01:55:66
  TRACK 107 AUDIO
    TITLE "TOEIC LR Kinnojyukugo_08_107"
    INDEX 01 01:56:74
  TRACK 108 AUDIO
    TITLE "TOEIC LR Kinnojyukugo_08_108"
    INDEX 01 01:57:52
  TRACK 109 AUDIO
    TITLE "TOEIC LR Kinnojyukugo_08_109"
    INDEX 01 01:59:13
  TRACK 110 AUDIO
    TITLE "TOEIC LR Kinnojyukugo_08_110"
    INDEX 01 01:59:62
  TRACK 111 AUDIO
    TITLE "TOEIC LR Kinnojyukugo_08_111"
    INDEX 01 02:01:34
  TRACK 112 AUDIO
    TITLE "TOEIC LR Kinnojyukugo_08_112"
    INDEX 01 02:02:08
  TRACK 113 AUDIO
    TITLE "TOEIC LR Kinnojyukugo_08_113"
    INDEX 01 02:03:56
  TRACK 114 AUDIO
    TITLE "TOEIC LR Kinnojyukugo_08_114"
    INDEX 01 02:04:67
  TRACK 115 AUDIO
    TITLE "TOEIC LR Kinnojyukugo_08_115"
    INDEX 01 02:06:06
  TRACK 116 AUDIO
    TITLE "TOEIC LR Kinnojyukugo_08_116"
    INDEX 01 02:06:58
  TRACK 117 AUDIO
    TITLE "TOEIC LR Kinnojyukugo_08_117"
    INDEX 01 02:08:28
  TRACK 118 AUDIO
    TITLE "TOEIC LR Kinnojyukugo_08_118"
    INDEX 01 02:09:02
  TRACK 119 AUDIO
    TITLE "TOEIC LR Kinnojyukugo_08_119"
    INDEX 01 02:10:46
  TRACK 120 AUDIO
    TITLE "TOEIC LR Kinnojyukugo_08_120"
    INDEX 01 02:11:22
  TRACK 121 AUDIO
    TITLE "TOEIC LR Kinnojyukugo_08_121"
    INDEX 01 02:13:33
  TRACK 122 AUDIO
    TITLE "TOEIC LR Kinnojyukugo_08_122"
    INDEX 01 02:14:44
  TRACK 123 AUDIO
    TITLE "TOEIC LR Kinnojyukugo_08_123"
    INDEX 01 02:15:61
  TRACK 124 AUDIO
    TITLE "TOEIC LR Kinnojyukugo_08_124"
    INDEX 01 02:16:31
  TRACK 125 AUDIO
    TITLE "TOEIC LR Kinnojyukugo_08_125"
    INDEX 01 02:17:72
  TRACK 126 AUDIO
    TITLE "TOEIC LR Kinnojyukugo_08_126"
    INDEX 01 02:18:50
  TRACK 127 AUDIO
    TITLE "TOEIC LR Kinnojyukugo_08_127"
    INDEX 01 02:20:19
  TRACK 128 AUDIO
    TITLE "TOEIC LR Kinnojyukugo_08_128"
    INDEX 01 02:20:68
  TRACK 129 AUDIO
    TITLE "TOEIC LR Kinnojyukugo_08_129"
    INDEX 01 02:23:08
  TRACK 130 AUDIO
    TITLE "TOEIC LR Kinnojyukugo_08_130"
    INDEX 01 02:24:27
  TRACK 131 AUDIO
    TITLE "TOEIC LR Kinnojyukugo_08_131"
    INDEX 01 02:25:32
  TRACK 132 AUDIO
    TITLE "TOEIC LR Kinnojyukugo_08_132"
    INDEX 01 02:26:10
  TRACK 133 AUDIO
    TITLE "TOEIC LR Kinnojyukugo_08_133"
    INDEX 01 02:27:45
  TRACK 134 AUDIO
    TITLE "TOEIC LR Kinnojyukugo_08_134"
    INDEX 01 02:28:21
  TRACK 135 AUDIO
    TITLE "TOEIC LR Kinnojyukugo_08_135"
    INDEX 01 02:29:61
  TRACK 136 AUDIO
    TITLE "TOEIC LR Kinnojyukugo_08_136"
    INDEX 01 02:30:43
  TRACK 137 AUDIO
    TITLE "TOEIC LR Kinnojyukugo_08_137"
    INDEX 01 02:32:15
  TRACK 138 AUDIO
    TITLE "TOEIC LR Kinnojyukugo_08_138"
    INDEX 01 02:33:30
  TRACK 139 AUDIO
    TITLE "TOEIC LR Kinnojyukugo_08_139"
    INDEX 01 02:34:39
  TRACK 140 AUDIO
    TITLE "TOEIC LR Kinnojyukugo_08_140"
    INDEX 01 02:35:15
  TRACK 141 AUDIO
    TITLE "TOEIC LR Kinnojyukugo_08_141"
    INDEX 01 02:36:58
  TRACK 142 AUDIO
    TITLE "TOEIC LR Kinnojyukugo_08_142"
    INDEX 01 02:37:33
  TRACK 143 AUDIO
    TITLE "TOEIC LR Kinnojyukugo_08_143"
    INDEX 01 02:39:11
  TRACK 144 AUDIO
    TITLE "TOEIC LR Kinnojyukugo_08_144"
    INDEX 01 02:39:60
  TRACK 145 AUDIO
    TITLE "TOEIC LR Kinnojyukugo_08_145"
    INDEX 01 02:41:25
  TRACK 146 AUDIO
    TITLE "TOEIC LR Kinnojyukugo_08_146"
    INDEX 01 02:42:43
  TRACK 147 AUDIO
    TITLE "TOEIC LR Kinnojyukugo_08_147"
    INDEX 01 02:43:40
  TRACK 148 AUDIO
    TITLE "TOEIC LR Kinnojyukugo_08_148"
    INDEX 01 02:44:14
  TRACK 149 AUDIO
    TITLE "TOEIC LR Kinnojyukugo_08_149"
    INDEX 01 02:45:58
  TRACK 150 AUDIO
    TITLE "TOEIC LR Kinnojyukugo_08_150"
    INDEX 01 02:46:32
  TRACK 151 AUDIO
    TITLE "TOEIC LR Kinnojyukugo_08_151"
    INDEX 01 02:47:65
  TRACK 152 AUDIO
    TITLE "TOEIC LR Kinnojyukugo_08_152"
    INDEX 01 02:48:43
  TRACK 153 AUDIO
    TITLE "TOEIC LR Kinnojyukugo_08_153"
    INDEX 01 02:50:15
  TRACK 154 AUDIO
    TITLE "TOEIC LR Kinnojyukugo_08_154"
    INDEX 01 02:51:28
  TRACK 155 AUDIO
    TITLE "TOEIC LR Kinnojyukugo_08_155"
    INDEX 01 02:52:31
  TRACK 156 AUDIO
    TITLE "TOEIC LR Kinnojyukugo_08_156"
    INDEX 01 02:53:05
  TRACK 157 AUDIO
    TITLE "TOEIC LR Kinnojyukugo_08_157"
    INDEX 01 02:54:73
  TRACK 158 AUDIO
    TITLE "TOEIC LR Kinnojyukugo_08_158"
    INDEX 01 02:55:51
  TRACK 159 AUDIO
    TITLE "TOEIC LR Kinnojyukugo_08_159"
    INDEX 01 02:57:71
  TRACK 160 AUDIO
    TITLE "TOEIC LR Kinnojyukugo_08_160"
    INDEX 01 02:58:47
  TRACK 161 AUDIO
    TITLE "TOEIC LR Kinnojyukugo_08_161"
    INDEX 01 03:00:23
  TRACK 162 AUDIO
    TITLE "TOEIC LR Kinnojyukugo_08_162"
    INDEX 01 03:01:36
  TRACK 163 AUDIO
    TITLE "TOEIC LR Kinnojyukugo_08_163"
    INDEX 01 03:02:33
  TRACK 164 AUDIO
    TITLE "TOEIC LR Kinnojyukugo_08_164"
    INDEX 01 03:03:13
  TRACK 165 AUDIO
    TITLE "TOEIC LR Kinnojyukugo_08_165"
    INDEX 01 03:04:26
  TRACK 166 AUDIO
    TITLE "TOEIC LR Kinnojyukugo_08_166"
    INDEX 01 03:05:00
  TRACK 167 AUDIO
    TITLE "TOEIC LR Kinnojyukugo_08_167"
    INDEX 01 03:06:47
  TRACK 168 AUDIO
    TITLE "TOEIC LR Kinnojyukugo_08_168"
    INDEX 01 03:07:19
  TRACK 169 AUDIO
    TITLE "TOEIC LR Kinnojyukugo_08_169"
    INDEX 01 03:08:61
  TRACK 170 AUDIO
    TITLE "TOEIC LR Kinnojyukugo_08_170"
    INDEX 01 03:10:04
  TRACK 171 AUDIO
    TITLE "TOEIC LR Kinnojyukugo_08_171"
    INDEX 01 03:11:25
  TRACK 172 AUDIO
    TITLE "TOEIC LR Kinnojyukugo_08_172"
    INDEX 01 03:12:01
  TRACK 173 AUDIO
    TITLE "TOEIC LR Kinnojyukugo_08_173"
    INDEX 01 03:13:57
  TRACK 174 AUDIO
    TITLE "TOEIC LR Kinnojyukugo_08_174"
    INDEX 01 03:14:33
  TRACK 175 AUDIO
    TITLE "TOEIC LR Kinnojyukugo_08_175"
    INDEX 01 03:16:00
  TRACK 176 AUDIO
    TITLE "TOEIC LR Kinnojyukugo_08_176"
    INDEX 01 03:16:53
  TRACK 177 AUDIO
    TITLE "TOEIC LR Kinnojyukugo_08_177"
    INDEX 01 03:18:34
  TRACK 178 AUDIO
    TITLE "TOEIC LR Kinnojyukugo_08_178"
    INDEX 01 03:19:48
  TRACK 179 AUDIO
    TITLE "TOEIC LR Kinnojyukugo_08_179"
    INDEX 01 03:20:51
  TRACK 180 AUDIO
    TITLE "TOEIC LR Kinnojyukugo_08_180"
    INDEX 01 03:21:25
  TRACK 181 AUDIO
    TITLE "TOEIC LR Kinnojyukugo_08_181"
    INDEX 01 03:22:54
  TRACK 182 AUDIO
    TITLE "TOEIC LR Kinnojyukugo_08_182"
    INDEX 01 03:23:28
  TRACK 183 AUDIO
    TITLE "TOEIC LR Kinnojyukugo_08_183"
    INDEX 01 03:24:61
  TRACK 184 AUDIO
    TITLE "TOEIC LR Kinnojyukugo_08_184"
    INDEX 01 03:25:33
  TRACK 185 AUDIO
    TITLE "TOEIC LR Kinnojyukugo_08_185"
    INDEX 01 03:27:14
  TRACK 186 AUDIO
    TITLE "TOEIC LR Kinnojyukugo_08_186"
    INDEX 01 03:28:25
  TRACK 187 AUDIO
    TITLE "TOEIC LR Kinnojyukugo_08_187"
    INDEX 01 03:29:40
  TRACK 188 AUDIO
    TITLE "TOEIC LR Kinnojyukugo_08_188"
    INDEX 01 03:30:16
  TRACK 189 AUDIO
    TITLE "TOEIC LR Kinnojyukugo_08_189"
    INDEX 01 03:32:19
  TRACK 190 AUDIO
    TITLE "TOEIC LR Kinnojyukugo_08_190"
    INDEX 01 03:32:72
  TRACK 191 AUDIO
    TITLE "TOEIC LR Kinnojyukugo_08_191"
    INDEX 01 03:35:07
  TRACK 192 AUDIO
    TITLE "TOEIC LR Kinnojyukugo_08_192"
    INDEX 01 03:35:58
  TRACK 193 AUDIO
    TITLE "TOEIC LR Kinnojyukugo_08_193"
    INDEX 01 03:37:36
  TRACK 194 AUDIO
    TITLE "TOEIC LR Kinnojyukugo_08_194"
    INDEX 01 03:38:49
  TRACK 195 AUDIO
    TITLE "TOEIC LR Kinnojyukugo_08_195"
    INDEX 01 03:39:64
  TRACK 196 AUDIO
    TITLE "TOEIC LR Kinnojyukugo_08_196"
    INDEX 01 03:40:40
  TRACK 197 AUDIO
    TITLE "TOEIC LR Kinnojyukugo_08_197"
    INDEX 01 03:43:38
  TRACK 198 AUDIO
    TITLE "TOEIC LR Kinnojyukugo_08_198"
    INDEX 01 03:44:16
  TRACK 199 AUDIO
    TITLE "TOEIC LR Kinnojyukugo_08_199"
    INDEX 01 03:46:64
  TRACK 200 AUDIO
    TITLE "TOEIC LR Kinnojyukugo_08_200"
    INDEX 01 03:47:40
  TRACK 201 AUDIO
    TITLE "TOEIC LR Kinnojyukugo_08_201"
    INDEX 01 03:50:34
  TRACK 202 AUDIO
    TITLE "TOEIC LR Kinnojyukugo_08_202"
    INDEX 01 03:51:48
  TRACK 203 AUDIO
    TITLE "TOEIC LR Kinnojyukugo_08_203"
    INDEX 01 03:52:59
  TRACK 204 AUDIO
    TITLE "TOEIC LR Kinnojyukugo_08_204"
    INDEX 01 03:53:35
  TRACK 205 AUDIO
    TITLE "TOEIC LR Kinnojyukugo_08_205"
    INDEX 01 03:54:66
  TRACK 206 AUDIO
    TITLE "TOEIC LR Kinnojyukugo_08_206"
    INDEX 01 03:55:47
  TRACK 207 AUDIO
    TITLE "TOEIC LR Kinnojyukugo_08_207"
    INDEX 01 03:57:52
  TRACK 208 AUDIO
    TITLE "TOEIC LR Kinnojyukugo_08_208"
    INDEX 01 03:58:36
  TRACK 209 AUDIO
    TITLE "TOEIC LR Kinnojyukugo_08_209"
    INDEX 01 04:00:19
  TRACK 210 AUDIO
    TITLE "TOEIC LR Kinnojyukugo_08_210"
    INDEX 01 04:01:32
  TRACK 211 AUDIO
    TITLE "TOEIC LR Kinnojyukugo_08_211"
    INDEX 01 04:02:42
  TRACK 212 AUDIO
    TITLE "TOEIC LR Kinnojyukugo_08_212"
    INDEX 01 04:03:17
  TRACK 213 AUDIO
    TITLE "TOEIC LR Kinnojyukugo_08_213"
    INDEX 01 04:04:50
  TRACK 214 AUDIO
    TITLE "TOEIC LR Kinnojyukugo_08_214"
    INDEX 01 04:05:26
  TRACK 215 AUDIO
    TITLE "TOEIC LR Kinnojyukugo_08_215"
    INDEX 01 04:07:13
  TRACK 216 AUDIO
    TITLE "TOEIC LR Kinnojyukugo_08_216"
    INDEX 01 04:07:62
  TRACK 217 AUDIO
    TITLE "TOEIC LR Kinnojyukugo_08_217"
    INDEX 01 04:09:32
  TRACK 218 AUDIO
    TITLE "TOEIC LR Kinnojyukugo_08_218"
    INDEX 01 04:10:45
  TRACK 219 AUDIO
    TITLE "TOEIC LR Kinnojyukugo_08_219"
    INDEX 01 04:11:60
  TRACK 220 AUDIO
    TITLE "TOEIC LR Kinnojyukugo_08_220"
    INDEX 01 04:12:36
  TRACK 221 AUDIO
    TITLE "TOEIC LR Kinnojyukugo_08_221"
    INDEX 01 04:14:11
  TRACK 222 AUDIO
    TITLE "TOEIC LR Kinnojyukugo_08_222"
    INDEX 01 04:15:01
  TRACK 223 AUDIO
    TITLE "TOEIC LR Kinnojyukugo_08_223"
    INDEX 01 04:16:36
  TRACK 224 AUDIO
    TITLE "TOEIC LR Kinnojyukugo_08_224"
    INDEX 01 04:17:10
  TRACK 225 AUDIO
    TITLE "TOEIC LR Kinnojyukugo_08_225"
    INDEX 01 04:18:64
  TRACK 226 AUDIO
    TITLE "TOEIC LR Kinnojyukugo_08_226"
    INDEX 01 04:20:04
  TRACK 227 AUDIO
    TITLE "TOEIC LR Kinnojyukugo_08_227"
    INDEX 01 04:21:13
  TRACK 228 AUDIO
    TITLE "TOEIC LR Kinnojyukugo_08_228"
    INDEX 01 04:22:03
  TRACK 229 AUDIO
    TITLE "TOEIC LR Kinnojyukugo_08_229"
    INDEX 01 04:23:61
  TRACK 230 AUDIO
    TITLE "TOEIC LR Kinnojyukugo_08_230"
    INDEX 01 04:24:37
  TRACK 231 AUDIO
    TITLE "TOEIC LR Kinnojyukugo_08_231"
    INDEX 01 04:26:11
  TRACK 232 AUDIO
    TITLE "TOEIC LR Kinnojyukugo_08_232"
    INDEX 01 04:26:64
  TRACK 233 AUDIO
    TITLE "TOEIC LR Kinnojyukugo_08_233"
    INDEX 01 04:28:25
  TRACK 234 AUDIO
    TITLE "TOEIC LR Kinnojyukugo_08_234"
    INDEX 01 04:29:52
  TRACK 235 AUDIO
    TITLE "TOEIC LR Kinnojyukugo_08_235"
    INDEX 01 04:30:57
  TRACK 236 AUDIO
    TITLE "TOEIC LR Kinnojyukugo_08_236"
    INDEX 01 04:31:31
  TRACK 237 AUDIO
    TITLE "TOEIC LR Kinnojyukugo_08_237"
    INDEX 01 04:32:60
  TRACK 238 AUDIO
    TITLE "TOEIC LR Kinnojyukugo_08_238"
    INDEX 01 04:33:38
  TRACK 239 AUDIO
    TITLE "TOEIC LR Kinnojyukugo_08_239"
    INDEX 01 04:35:06
  TRACK 240 AUDIO
    TITLE "TOEIC LR Kinnojyukugo_08_240"
    INDEX 01 04:35:55
  TRACK 241 AUDIO
    TITLE "TOEIC LR Kinnojyukugo_08_241"
    INDEX 01 04:37:16
  TRACK 242 AUDIO
    TITLE "TOEIC LR Kinnojyukugo_08_242"
    INDEX 01 04:38:31
  TRACK 243 AUDIO
    TITLE "TOEIC LR Kinnojyukugo_08_243"
    INDEX 01 04:39:39
  TRACK 244 AUDIO
    TITLE "TOEIC LR Kinnojyukugo_08_244"
    INDEX 01 04:40:13
  TRACK 245 AUDIO
    TITLE "TOEIC LR Kinnojyukugo_08_245"
    INDEX 01 04:41:36
  TRACK 246 AUDIO
    TITLE "TOEIC LR Kinnojyukugo_08_246"
    INDEX 01 04:42:10
  TRACK 247 AUDIO
    TITLE "TOEIC LR Kinnojyukugo_08_247"
    INDEX 01 04:43:60
  TRACK 248 AUDIO
    TITLE "TOEIC LR Kinnojyukugo_08_248"
    INDEX 01 04:44:34
  TRACK 249 AUDIO
    TITLE "TOEIC LR Kinnojyukugo_08_249"
    INDEX 01 04:45:73
  TRACK 250 AUDIO
    TITLE "TOEIC LR Kinnojyukugo_08_250"
    INDEX 01 04:47:13
  TRACK 251 AUDIO
    TITLE "TOEIC LR Kinnojyukugo_08_251"
    INDEX 01 04:48:20
  TRACK 252 AUDIO
    TITLE "TOEIC LR Kinnojyukugo_08_252"
    INDEX 01 04:49:02
  TRACK 253 AUDIO
    TITLE "TOEIC LR Kinnojyukugo_08_253"
    INDEX 01 04:50:43
  TRACK 254 AUDIO
    TITLE "TOEIC LR Kinnojyukugo_08_254"
    INDEX 01 04:51:16
  TRACK 255 AUDIO
    TITLE "TOEIC LR Kinnojyukugo_08_255"
    INDEX 01 04:52:65
  TRACK 256 AUDIO
    TITLE "TOEIC LR Kinnojyukugo_08_256"
    INDEX 01 04:53:41
  TRACK 257 AUDIO
    TITLE "TOEIC LR Kinnojyukugo_08_257"
    INDEX 01 04:55:06
  TRACK 258 AUDIO
    TITLE "TOEIC LR Kinnojyukugo_08_258"
    INDEX 01 04:56:20
  TRACK 259 AUDIO
    TITLE "TOEIC LR Kinnojyukugo_08_259"
    INDEX 01 04:57:29
  TRACK 260 AUDIO
    TITLE "TOEIC LR Kinnojyukugo_08_260"
    INDEX 01 04:58:05
  TRACK 261 AUDIO
    TITLE "TOEIC LR Kinnojyukugo_08_261"
    INDEX 01 04:59:47
  TRACK 262 AUDIO
    TITLE "TOEIC LR Kinnojyukugo_08_262"
    INDEX 01 05:00:23
  TRACK 263 AUDIO
    TITLE "TOEIC LR Kinnojyukugo_08_263"
    INDEX 01 05:01:72
  TRACK 264 AUDIO
    TITLE "TOEIC LR Kinnojyukugo_08_264"
    INDEX 01 05:02:48
  TRACK 265 AUDIO
    TITLE "TOEIC LR Kinnojyukugo_08_265"
    INDEX 01 05:04:33
  TRACK 266 AUDIO
    TITLE "TOEIC LR Kinnojyukugo_08_266"
    INDEX 01 05:05:46
  TRACK 267 AUDIO
    TITLE "TOEIC LR Kinnojyukugo_08_267"
    INDEX 01 05:06:53
  TRACK 268 AUDIO
    TITLE "TOEIC LR Kinnojyukugo_08_268"
    INDEX 01 05:07:27
  TRACK 269 AUDIO
    TITLE "TOEIC LR Kinnojyukugo_08_269"
    INDEX 01 05:09:12
  TRACK 270 AUDIO
    TITLE "TOEIC LR Kinnojyukugo_08_270"
    INDEX 01 05:09:63
  TRACK 271 AUDIO
    TITLE "TOEIC LR Kinnojyukugo_08_271"
    INDEX 01 05:11:54
  TRACK 272 AUDIO
    TITLE "TOEIC LR Kinnojyukugo_08_272"
    INDEX 01 05:12:32
  TRACK 273 AUDIO
    TITLE "TOEIC LR Kinnojyukugo_08_273"
    INDEX 01 05:14:18
  TRACK 274 AUDIO
    TITLE "TOEIC LR Kinnojyukugo_08_274"
    INDEX 01 05:15:29
  TRACK 275 AUDIO
    TITLE "TOEIC LR Kinnojyukugo_08_275"
    INDEX 01 05:16:40
  TRACK 276 AUDIO
    TITLE "TOEIC LR Kinnojyukugo_08_276"
    INDEX 01 05:17:16
  TRACK 277 AUDIO
    TITLE "TOEIC LR Kinnojyukugo_08_277"
    INDEX 01 05:18:56
  TRACK 278 AUDIO
    TITLE "TOEIC LR Kinnojyukugo_08_278"
    INDEX 01 05:19:32
  TRACK 279 AUDIO
    TITLE "TOEIC LR Kinnojyukugo_08_279"
    INDEX 01 05:20:73
  TRACK 280 AUDIO
    TITLE "TOEIC LR Kinnojyukugo_08_280"
    INDEX 01 05:21:49
  TRACK 281 AUDIO
    TITLE "TOEIC LR Kinnojyukugo_08_281"
    INDEX 01 05:23:15
  TRACK 282 AUDIO
    TITLE "TOEIC LR Kinnojyukugo_08_282"
    INDEX 01 05:24:28
  TRACK 283 AUDIO
    TITLE "TOEIC LR Kinnojyukugo_08_283"
    INDEX 01 05:25:47
  TRACK 284 AUDIO
    TITLE "TOEIC LR Kinnojyukugo_08_284"
    INDEX 01 05:26:21
  TRACK 285 AUDIO
    TITLE "TOEIC LR Kinnojyukugo_08_285"
    INDEX 01 05:28:10
  TRACK 286 AUDIO
    TITLE "TOEIC LR Kinnojyukugo_08_286"
    INDEX 01 05:28:59
  TRACK 287 AUDIO
    TITLE "TOEIC LR Kinnojyukugo_08_287"
    INDEX 01 05:30:30
  TRACK 288 AUDIO
    TITLE "TOEIC LR Kinnojyukugo_08_288"
    INDEX 01 05:31:10
  TRACK 289 AUDIO
    TITLE "TOEIC LR Kinnojyukugo_08_289"
    INDEX 01 05:32:47
  TRACK 290 AUDIO
    TITLE "TOEIC LR Kinnojyukugo_08_290"
    INDEX 01 05:33:60
  TRACK 291 AUDIO
    TITLE "TOEIC LR Kinnojyukugo_08_291"
    INDEX 01 05:35:04
  TRACK 292 AUDIO
    TITLE "TOEIC LR Kinnojyukugo_08_292"
    INDEX 01 05:35:55
  TRACK 293 AUDIO
    TITLE "TOEIC LR Kinnojyukugo_08_293"
    INDEX 01 05:37:40
  TRACK 294 AUDIO
    TITLE "TOEIC LR Kinnojyukugo_08_294"
    INDEX 01 05:38:14
  TRACK 295 AUDIO
    TITLE "TOEIC LR Kinnojyukugo_08_295"
    INDEX 01 05:39:64
  TRACK 296 AUDIO
    TITLE "TOEIC LR Kinnojyukugo_08_296"
    INDEX 01 05:40:37
  TRACK 297 AUDIO
    TITLE "TOEIC LR Kinnojyukugo_08_297"
    INDEX 01 05:42:12
  TRACK 298 AUDIO
    TITLE "TOEIC LR Kinnojyukugo_08_298"
    INDEX 01 05:43:23
  TRACK 299 AUDIO
    TITLE "TOEIC LR Kinnojyukugo_08_299"
    INDEX 01 05:44:26
  TRACK 300 AUDIO
    TITLE "TOEIC LR Kinnojyukugo_08_300"
    INDEX 01 05:45:00
  TRACK 301 AUDIO
    TITLE "TOEIC LR Kinnojyukugo_08_301"
    INDEX 01 05:46:41
  TRACK 302 AUDIO
    TITLE "TOEIC LR Kinnojyukugo_08_302"
    INDEX 01 05:47:19
  TRACK 303 AUDIO
    TITLE "TOEIC LR Kinnojyukugo_08_303"
    INDEX 01 05:48:69
  TRACK 304 AUDIO
    TITLE "TOEIC LR Kinnojyukugo_08_304"
    INDEX 01 05:49:45
  TRACK 305 AUDIO
    TITLE "TOEIC LR Kinnojyukugo_08_305"
    INDEX 01 05:51:11
  TRACK 306 AUDIO
    TITLE "TOEIC LR Kinnojyukugo_08_306"
    INDEX 01 05:52:24
  TRACK 307 AUDIO
    TITLE "TOEIC LR Kinnojyukugo_08_307"
    INDEX 01 05:53:59
  TRACK 308 AUDIO
    TITLE "TOEIC LR Kinnojyukugo_08_308"
    INDEX 01 05:54:35
  TRACK 309 AUDIO
    TITLE "TOEIC LR Kinnojyukugo_08_309"
    INDEX 01 05:56:39
  TRACK 310 AUDIO
    TITLE "TOEIC LR Kinnojyukugo_08_310"
    INDEX 01 05:57:15
  TRACK 311 AUDIO
    TITLE "TOEIC LR Kinnojyukugo_08_311"
    INDEX 01 05:59:26
  TRACK 312 AUDIO
    TITLE "TOEIC LR Kinnojyukugo_08_312"
    INDEX 01 06:00:00
  TRACK 313 AUDIO
    TITLE "TOEIC LR Kinnojyukugo_08_313"
    INDEX 01 06:02:11
  TRACK 314 AUDIO
    TITLE "TOEIC LR Kinnojyukugo_08_314"
    INDEX 01 06:03:22
  TRACK 315 AUDIO
    TITLE "TOEIC LR Kinnojyukugo_08_315"
    INDEX 01 06:04:37
  TRACK 316 AUDIO
    TITLE "TOEIC LR Kinnojyukugo_08_316"
    INDEX 01 06:05:13
  TRACK 317 AUDIO
    TITLE "TOEIC LR Kinnojyukugo_08_317"
    INDEX 01 06:06:57
  TRACK 318 AUDIO
    TITLE "TOEIC LR Kinnojyukugo_08_318"
    INDEX 01 06:07:33
  TRACK 319 AUDIO
    TITLE "TOEIC LR Kinnojyukugo_08_319"
    INDEX 01 06:09:11
  TRACK 320 AUDIO
    TITLE "TOEIC LR Kinnojyukugo_08_320"
    INDEX 01 06:09:60
  TRACK 321 AUDIO
    TITLE "TOEIC LR Kinnojyukugo_08_321"
    INDEX 01 06:11:55
  TRACK 322 AUDIO
    TITLE "TOEIC LR Kinnojyukugo_08_322"
    INDEX 01 06:12:66
  TRACK 323 AUDIO
    TITLE "TOEIC LR Kinnojyukugo_08_323"
    INDEX 01 06:14:00
  TRACK 324 AUDIO
    TITLE "TOEIC LR Kinnojyukugo_08_324"
    INDEX 01 06:14:51
  TRACK 325 AUDIO
    TITLE "TOEIC LR Kinnojyukugo_08_325"
    INDEX 01 06:16:21
  TRACK 326 AUDIO
    TITLE "TOEIC LR Kinnojyukugo_08_326"
    INDEX 01 06:16:72
  TRACK 327 AUDIO
    TITLE "TOEIC LR Kinnojyukugo_08_327"
    INDEX 01 06:18:53
  TRACK 328 AUDIO
    TITLE "TOEIC LR Kinnojyukugo_08_328"
    INDEX 01 06:19:31
  TRACK 329 AUDIO
    TITLE "TOEIC LR Kinnojyukugo_08_329"
    INDEX 01 06:20:73
  TRACK 330 AUDIO
    TITLE "TOEIC LR Kinnojyukugo_08_330"
    INDEX 01 06:22:13
  TRACK 331 AUDIO
    TITLE "TOEIC LR Kinnojyukugo_08_331"
    INDEX 01 06:23:30
  TRACK 332 AUDIO
    TITLE "TOEIC LR Kinnojyukugo_08_332"
    INDEX 01 06:24:08
  TRACK 333 AUDIO
    TITLE "TOEIC LR Kinnojyukugo_08_333"
    INDEX 01 06:25:67
  TRACK 334 AUDIO
    TITLE "TOEIC LR Kinnojyukugo_08_334"
    INDEX 01 06:26:43
  TRACK 335 AUDIO
    TITLE "TOEIC LR Kinnojyukugo_08_335"
    INDEX 01 06:28:45
  TRACK 336 AUDIO
    TITLE "TOEIC LR Kinnojyukugo_08_336"
    INDEX 01 06:29:19
  TRACK 337 AUDIO
    TITLE "TOEIC LR Kinnojyukugo_08_337"
    INDEX 01 06:31:14
  TRACK 338 AUDIO
    TITLE "TOEIC LR Kinnojyukugo_08_338"
    INDEX 01 06:32:25
  TRACK 339 AUDIO
    TITLE "TOEIC LR Kinnojyukugo_08_339"
    INDEX 01 06:33:29
  TRACK 340 AUDIO
    TITLE "TOEIC LR Kinnojyukugo_08_340"
    INDEX 01 06:34:05
  TRACK 341 AUDIO
    TITLE "TOEIC LR Kinnojyukugo_08_341"
    INDEX 01 06:35:51
  TRACK 342 AUDIO
    TITLE "TOEIC LR Kinnojyukugo_08_342"
    INDEX 01 06:36:27
  TRACK 343 AUDIO
    TITLE "TOEIC LR Kinnojyukugo_08_343"
    INDEX 01 06:37:72
  TRACK 344 AUDIO
    TITLE "TOEIC LR Kinnojyukugo_08_344"
    INDEX 01 06:38:48
  TRACK 345 AUDIO
    TITLE "TOEIC LR Kinnojyukugo_08_345"
    INDEX 01 06:40:29
  TRACK 346 AUDIO
    TITLE "TOEIC LR Kinnojyukugo_08_346"
    INDEX 01 06:41:42
  TRACK 347 AUDIO
    TITLE "TOEIC LR Kinnojyukugo_08_347"
    INDEX 01 06:42:45
  TRACK 348 AUDIO
    TITLE "TOEIC LR Kinnojyukugo_08_348"
    INDEX 01 06:43:23
  TRACK 349 AUDIO
    TITLE "TOEIC LR Kinnojyukugo_08_349"
    INDEX 01 06:45:22
  TRACK 350 AUDIO
    TITLE "TOEIC LR Kinnojyukugo_08_350"
    INDEX 01 06:45:73
  TRACK 351 AUDIO
    TITLE "TOEIC LR Kinnojyukugo_08_351"
    INDEX 01 06:47:33
  TRACK 352 AUDIO
    TITLE "TOEIC LR Kinnojyukugo_08_352"
    INDEX 01 06:48:07
  TRACK 353 AUDIO
    TITLE "TOEIC LR Kinnojyukugo_08_353"
    INDEX 01 06:49:67
  TRACK 354 AUDIO
    TITLE "TOEIC LR Kinnojyukugo_08_354"
    INDEX 01 06:51:05
  TRACK 355 AUDIO
    TITLE "TOEIC LR Kinnojyukugo_08_355"
    INDEX 01 06:52:13
  TRACK 356 AUDIO
    TITLE "TOEIC LR Kinnojyukugo_08_356"
    INDEX 01 06:52:63
  TRACK 357 AUDIO
    TITLE "TOEIC LR Kinnojyukugo_08_357"
    INDEX 01 06:54:35
  TRACK 358 AUDIO
    TITLE "TOEIC LR Kinnojyukugo_08_358"
    INDEX 01 06:55:11
  TRACK 359 AUDIO
    TITLE "TOEIC LR Kinnojyukugo_08_359"
    INDEX 01 06:56:49
  TRACK 360 AUDIO
    TITLE "TOEIC LR Kinnojyukugo_08_360"
    INDEX 01 06:57:27
  TRACK 361 AUDIO
    TITLE "TOEIC LR Kinnojyukugo_08_361"
    INDEX 01 06:58:74
  TRACK 362 AUDIO
    TITLE "TOEIC LR Kinnojyukugo_08_362"
    INDEX 01 07:00:08
  TRACK 363 AUDIO
    TITLE "TOEIC LR Kinnojyukugo_08_363"
    INDEX 01 07:01:27
  TRACK 364 AUDIO
    TITLE "TOEIC LR Kinnojyukugo_08_364"
    INDEX 01 07:01:74
  TRACK 365 AUDIO
    TITLE "TOEIC LR Kinnojyukugo_08_365"
    INDEX 01 07:03:69
  TRACK 366 AUDIO
    TITLE "TOEIC LR Kinnojyukugo_08_366"
    INDEX 01 07:04:45
  TRACK 367 AUDIO
    TITLE "TOEIC LR Kinnojyukugo_08_367"
    INDEX 01 07:06:07
  TRACK 368 AUDIO
    TITLE "TOEIC LR Kinnojyukugo_08_368"
    INDEX 01 07:06:58
  TRACK 369 AUDIO
    TITLE "TOEIC LR Kinnojyukugo_08_369"
    INDEX 01 07:08:45
  TRACK 370 AUDIO
    TITLE "TOEIC LR Kinnojyukugo_08_370"
    INDEX 01 07:09:58
  TRACK 371 AUDIO
    TITLE "TOEIC LR Kinnojyukugo_08_371"
    INDEX 01 07:11:06
  TRACK 372 AUDIO
    TITLE "TOEIC LR Kinnojyukugo_08_372"
    INDEX 01 07:11:59
  TRACK 373 AUDIO
    TITLE "TOEIC LR Kinnojyukugo_08_373"
    INDEX 01 07:13:38
  TRACK 374 AUDIO
    TITLE "TOEIC LR Kinnojyukugo_08_374"
    INDEX 01 07:14:16
  TRACK 375 AUDIO
    TITLE "TOEIC LR Kinnojyukugo_08_375"
    INDEX 01 07:16:19
  TRACK 376 AUDIO
    TITLE "TOEIC LR Kinnojyukugo_08_376"
    INDEX 01 07:16:70
  TRACK 377 AUDIO
    TITLE "TOEIC LR Kinnojyukugo_08_377"
    INDEX 01 07:18:65
  TRACK 378 AUDIO
    TITLE "TOEIC LR Kinnojyukugo_08_378"
    INDEX 01 07:20:05
  TRACK 379 AUDIO
    TITLE "TOEIC LR Kinnojyukugo_08_379"
    INDEX 01 07:21:20
  TRACK 380 AUDIO
    TITLE "TOEIC LR Kinnojyukugo_08_380"
    INDEX 01 07:21:63
  TRACK 381 AUDIO
    TITLE "TOEIC LR Kinnojyukugo_08_381"
    INDEX 01 07:23:39
  TRACK 382 AUDIO
    TITLE "TOEIC LR Kinnojyukugo_08_382"
    INDEX 01 07:24:13
  TRACK 383 AUDIO
    TITLE "TOEIC LR Kinnojyukugo_08_383"
    INDEX 01 07:26:02
  TRACK 384 AUDIO
    TITLE "TOEIC LR Kinnojyukugo_08_384"
    INDEX 01 07:26:55
  TRACK 385 AUDIO
    TITLE "TOEIC LR Kinnojyukugo_08_385"
    INDEX 01 07:28:55
  TRACK 386 AUDIO
    TITLE "TOEIC LR Kinnojyukugo_08_386"
    INDEX 01 07:29:69
  TRACK 387 AUDIO
    TITLE "TOEIC LR Kinnojyukugo_08_387"
    INDEX 01 07:31:15
  TRACK 388 AUDIO
    TITLE "TOEIC LR Kinnojyukugo_08_388"
    INDEX 01 07:31:67
  TRACK 389 AUDIO
    TITLE "TOEIC LR Kinnojyukugo_08_389"
    INDEX 01 07:33:39
  TRACK 390 AUDIO
    TITLE "TOEIC LR Kinnojyukugo_08_390"
    INDEX 01 07:34:17
  TRACK 391 AUDIO
    TITLE "TOEIC LR Kinnojyukugo_08_391"
    INDEX 01 07:36:00
  TRACK 392 AUDIO
    TITLE "TOEIC LR Kinnojyukugo_08_392"
    INDEX 01 07:36:53
  TRACK 393 AUDIO
    TITLE "TOEIC LR Kinnojyukugo_08_393"
    INDEX 01 07:38:28
  TRACK 394 AUDIO
    TITLE "TOEIC LR Kinnojyukugo_08_394"
    INDEX 01 07:39:41
  TRACK 395 AUDIO
    TITLE "TOEIC LR Kinnojyukugo_08_395"
    INDEX 01 07:40:62
  TRACK 396 AUDIO
    TITLE "TOEIC LR Kinnojyukugo_08_396"
    INDEX 01 07:41:36
  TRACK 397 AUDIO
    TITLE "TOEIC LR Kinnojyukugo_08_397"
    INDEX 01 07:43:10
  TRACK 398 AUDIO
    TITLE "TOEIC LR Kinnojyukugo_08_398"
    INDEX 01 07:43:59
  TRACK 399 AUDIO
    TITLE "TOEIC LR Kinnojyukugo_08_399"
    INDEX 01 07:45:40
  TRACK 400 AUDIO
    TITLE "TOEIC LR Kinnojyukugo_08_400"
    INDEX 01 07:46:16
  TRACK 401 AUDIO
    TITLE "TOEIC LR Kinnojyukugo_08_401"
    INDEX 01 07:48:46
  TRACK 402 AUDIO
    TITLE "TOEIC LR Kinnojyukugo_08_402"
    INDEX 01 07:49:59
  TRACK 403 AUDIO
    TITLE "TOEIC LR Kinnojyukugo_08_403"
    INDEX 01 07:51:04
  TRACK 404 AUDIO
    TITLE "TOEIC LR Kinnojyukugo_08_404"
    INDEX 01 07:51:52
  TRACK 405 AUDIO
    TITLE "TOEIC LR Kinnojyukugo_08_405"
    INDEX 01 07:53:14
  TRACK 406 AUDIO
    TITLE "TOEIC LR Kinnojyukugo_08_406"
    INDEX 01 07:53:65
  TRACK 407 AUDIO
    TITLE "TOEIC LR Kinnojyukugo_08_407"
    INDEX 01 07:55:37
  TRACK 408 AUDIO
    TITLE "TOEIC LR Kinnojyukugo_08_408"
    INDEX 01 07:56:13
  TRACK 409 AUDIO
    TITLE "TOEIC LR Kinnojyukugo_08_409"
    INDEX 01 07:58:00
  TRACK 410 AUDIO
    TITLE "TOEIC LR Kinnojyukugo_08_410"
    INDEX 01 07:59:13
  TRACK 411 AUDIO
    TITLE "TOEIC LR Kinnojyukugo_08_411"
    INDEX 01 08:00:34
  TRACK 412 AUDIO
    TITLE "TOEIC LR Kinnojyukugo_08_412"
    INDEX 01 08:01:08
  TRACK 413 AUDIO
    TITLE "TOEIC LR Kinnojyukugo_08_413"
    INDEX 01 08:02:64
  TRACK 414 AUDIO
    TITLE "TOEIC LR Kinnojyukugo_08_414"
    INDEX 01 08:03:42
  TRACK 415 AUDIO
    TITLE "TOEIC LR Kinnojyukugo_08_415"
    INDEX 01 08:05:17
  TRACK 416 AUDIO
    TITLE "TOEIC LR Kinnojyukugo_08_416"
    INDEX 01 08:05:58
  TRACK 417 AUDIO
    TITLE "TOEIC LR Kinnojyukugo_08_417"
    INDEX 01 08:07:30
  TRACK 418 AUDIO
    TITLE "TOEIC LR Kinnojyukugo_08_418"
    INDEX 01 08:08:45
  TRACK 419 AUDIO
    TITLE "TOEIC LR Kinnojyukugo_08_419"
    INDEX 01 08:09:48
  TRACK 420 AUDIO
    TITLE "TOEIC LR Kinnojyukugo_08_420"
    INDEX 01 08:10:22
  TRACK 421 AUDIO
    TITLE "TOEIC LR Kinnojyukugo_08_421"
    INDEX 01 08:11:63
  TRACK 422 AUDIO
    TITLE "TOEIC LR Kinnojyukugo_08_422"
    INDEX 01 08:12:37
  TRACK 423 AUDIO
    TITLE "TOEIC LR Kinnojyukugo_08_423"
    INDEX 01 08:13:64
  TRACK 424 AUDIO
    TITLE "TOEIC LR Kinnojyukugo_08_424"
    INDEX 01 08:14:38
  TRACK 425 AUDIO
    TITLE "TOEIC LR Kinnojyukugo_08_425"
    INDEX 01 08:16:03
  TRACK 426 AUDIO
    TITLE "TOEIC LR Kinnojyukugo_08_426"
    INDEX 01 08:17:15
  TRACK 427 AUDIO
    TITLE "TOEIC LR Kinnojyukugo_08_427"
    INDEX 01 08:18:30
  TRACK 428 AUDIO
    TITLE "TOEIC LR Kinnojyukugo_08_428"
    INDEX 01 08:19:06
  TRACK 429 AUDIO
    TITLE "TOEIC LR Kinnojyukugo_08_429"
    INDEX 01 08:20:52
  TRACK 430 AUDIO
    TITLE "TOEIC LR Kinnojyukugo_08_430"
    INDEX 01 08:21:32
  TRACK 431 AUDIO
    TITLE "TOEIC LR Kinnojyukugo_08_431"
    INDEX 01 08:22:67
  TRACK 432 AUDIO
    TITLE "TOEIC LR Kinnojyukugo_08_432"
    INDEX 01 08:23:43
  TRACK 433 AUDIO
    TITLE "TOEIC LR Kinnojyukugo_08_433"
    INDEX 01 08:25:08
  TRACK 434 AUDIO
    TITLE "TOEIC LR Kinnojyukugo_08_434"
    INDEX 01 08:26:21
  TRACK 435 AUDIO
    TITLE "TOEIC LR Kinnojyukugo_08_435"
    INDEX 01 08:27:33
  TRACK 436 AUDIO
    TITLE "TOEIC LR Kinnojyukugo_08_436"
    INDEX 01 08:28:07
  TRACK 437 AUDIO
    TITLE "TOEIC LR Kinnojyukugo_08_437"
    INDEX 01 08:29:39
  TRACK 438 AUDIO
    TITLE "TOEIC LR Kinnojyukugo_08_438"
    INDEX 01 08:30:15
  TRACK 439 AUDIO
    TITLE "TOEIC LR Kinnojyukugo_08_439"
    INDEX 01 08:31:64
  TRACK 440 AUDIO
    TITLE "TOEIC LR Kinnojyukugo_08_440"
    INDEX 01 08:32:40
  TRACK 441 AUDIO
    TITLE "TOEIC LR Kinnojyukugo_08_441"
    INDEX 01 08:34:54
  TRACK 442 AUDIO
    TITLE "TOEIC LR Kinnojyukugo_08_442"
    INDEX 01 08:35:67
  TRACK 443 AUDIO
    TITLE "TOEIC LR Kinnojyukugo_08_443"
    INDEX 01 08:37:02
  TRACK 444 AUDIO
    TITLE "TOEIC LR Kinnojyukugo_08_444"
    INDEX 01 08:37:51
  TRACK 445 AUDIO
    TITLE "TOEIC LR Kinnojyukugo_08_445"
    INDEX 01 08:39:28
  TRACK 446 AUDIO
    TITLE "TOEIC LR Kinnojyukugo_08_446"
    INDEX 01 08:40:02
  TRACK 447 AUDIO
    TITLE "TOEIC LR Kinnojyukugo_08_447"
    INDEX 01 08:41:46
  TRACK 448 AUDIO
    TITLE "TOEIC LR Kinnojyukugo_08_448"
    INDEX 01 08:42:22
  TRACK 449 AUDIO
    TITLE "TOEIC LR Kinnojyukugo_08_449"
    INDEX 01 08:43:69
  TRACK 450 AUDIO
    TITLE "TOEIC LR Kinnojyukugo_08_450"
    INDEX 01 08:45:11
  TRACK 451 AUDIO
    TITLE "TOEIC LR Kinnojyukugo_08_451"
    INDEX 01 08:46:08
  TRACK 452 AUDIO
    TITLE "TOEIC LR Kinnojyukugo_08_452"
    INDEX 01 08:46:71
  TRACK 453 AUDIO
    TITLE "TOEIC LR Kinnojyukugo_08_453"
    INDEX 01 08:48:35
  TRACK 454 AUDIO
    TITLE "TOEIC LR Kinnojyukugo_08_454"
    INDEX 01 08:49:11
  TRACK 455 AUDIO
    TITLE "TOEIC LR Kinnojyukugo_08_455"
    INDEX 01 08:50:57
  TRACK 456 AUDIO
    TITLE "TOEIC LR Kinnojyukugo_08_456"
    INDEX 01 08:51:33
  TRACK 457 AUDIO
    TITLE "TOEIC LR Kinnojyukugo_08_457"
    INDEX 01 08:53:24
  TRACK 458 AUDIO
    TITLE "TOEIC LR Kinnojyukugo_08_458"
    INDEX 01 08:54:37
  TRACK 459 AUDIO
    TITLE "TOEIC LR Kinnojyukugo_08_459"
    INDEX 01 08:55:54
  TRACK 460 AUDIO
    TITLE "TOEIC LR Kinnojyukugo_08_460"
    INDEX 01 08:56:30
  TRACK 461 AUDIO
    TITLE "TOEIC LR Kinnojyukugo_08_461"
    INDEX 01 08:58:39
  TRACK 462 AUDIO
    TITLE "TOEIC LR Kinnojyukugo_08_462"
    INDEX 01 08:59:13
  TRACK 463 AUDIO
    TITLE "TOEIC LR Kinnojyukugo_08_463"
    INDEX 01 09:00:44
  TRACK 464 AUDIO
    TITLE "TOEIC LR Kinnojyukugo_08_464"
    INDEX 01 09:01:20
  TRACK 465 AUDIO
    TITLE "TOEIC LR Kinnojyukugo_08_465"
    INDEX 01 09:02:55
  TRACK 466 AUDIO
    TITLE "TOEIC LR Kinnojyukugo_08_466"
    INDEX 01 09:03:66
  TRACK 467 AUDIO
    TITLE "TOEIC LR Kinnojyukugo_08_467"
    INDEX 01 09:05:06
  TRACK 468 AUDIO
    TITLE "TOEIC LR Kinnojyukugo_08_468"
    INDEX 01 09:05:55
  TRACK 469 AUDIO
    TITLE "TOEIC LR Kinnojyukugo_08_469"
    INDEX 01 09:07:30
  TRACK 470 AUDIO
    TITLE "TOEIC LR Kinnojyukugo_08_470"
    INDEX 01 09:08:04
  TRACK 471 AUDIO
    TITLE "TOEIC LR Kinnojyukugo_08_471"
    INDEX 01 09:09:43
  TRACK 472 AUDIO
    TITLE "TOEIC LR Kinnojyukugo_08_472"
    INDEX 01 09:10:19
  TRACK 473 AUDIO
    TITLE "TOEIC LR Kinnojyukugo_08_473"
    INDEX 01 09:11:53
  TRACK 474 AUDIO
    TITLE "TOEIC LR Kinnojyukugo_08_474"
    INDEX 01 09:12:69
  TRACK 475 AUDIO
    TITLE "TOEIC LR Kinnojyukugo_08_475"
    INDEX 01 09:14:01
  TRACK 476 AUDIO
    TITLE "TOEIC LR Kinnojyukugo_08_476"
    INDEX 01 09:14:50
  TRACK 477 AUDIO
    TITLE "TOEIC LR Kinnojyukugo_08_477"
    INDEX 01 09:16:27
  TRACK 478 AUDIO
    TITLE "TOEIC LR Kinnojyukugo_08_478"
    INDEX 01 09:17:03
  TRACK 479 AUDIO
    TITLE "TOEIC LR Kinnojyukugo_08_479"
    INDEX 01 09:18:55
  TRACK 480 AUDIO
    TITLE "TOEIC LR Kinnojyukugo_08_480"
    INDEX 01 09:19:33
  TRACK 481 AUDIO
    TITLE "TOEIC LR Kinnojyukugo_08_481"
    INDEX 01 09:21:17
  TRACK 482 AUDIO
    TITLE "TOEIC LR Kinnojyukugo_08_482"
    INDEX 01 09:22:30
  TRACK 483 AUDIO
    TITLE "TOEIC LR Kinnojyukugo_08_483"
    INDEX 01 09:23:45
  TRACK 484 AUDIO
    TITLE "TOEIC LR Kinnojyukugo_08_484"
    INDEX 01 09:24:21
  TRACK 485 AUDIO
    TITLE "TOEIC LR Kinnojyukugo_08_485"
    INDEX 01 09:25:57
  TRACK 486 AUDIO
    TITLE "TOEIC LR Kinnojyukugo_08_486"
    INDEX 01 09:26:35
  TRACK 487 AUDIO
    TITLE "TOEIC LR Kinnojyukugo_08_487"
    INDEX 01 09:28:03
  TRACK 488 AUDIO
    TITLE "TOEIC LR Kinnojyukugo_08_488"
    INDEX 01 09:28:52
  TRACK 489 AUDIO
    TITLE "TOEIC LR Kinnojyukugo_08_489"
    INDEX 01 09:30:18
  TRACK 490 AUDIO
    TITLE "TOEIC LR Kinnojyukugo_08_490"
    INDEX 01 09:31:29
  TRACK 491 AUDIO
    TITLE "TOEIC LR Kinnojyukugo_08_491"
    INDEX 01 09:32:38
  TRACK 492 AUDIO
    TITLE "TOEIC LR Kinnojyukugo_08_492"
    INDEX 01 09:33:12
  TRACK 493 AUDIO
    TITLE "TOEIC LR Kinnojyukugo_08_493"
    INDEX 01 09:35:19
  TRACK 494 AUDIO
    TITLE "TOEIC LR Kinnojyukugo_08_494"
    INDEX 01 09:35:70
  TRACK 495 AUDIO
    TITLE "TOEIC LR Kinnojyukugo_08_495"
    INDEX 01 09:37:53
  TRACK 496 AUDIO
    TITLE "TOEIC LR Kinnojyukugo_08_496"
    INDEX 01 09:38:27
  TRACK 497 AUDIO
    TITLE "TOEIC LR Kinnojyukugo_08_497"
    INDEX 01 09:40:06
  TRACK 498 AUDIO
    TITLE "TOEIC LR Kinnojyukugo_08_498"
    INDEX 01 09:41:19
  TRACK 499 AUDIO
    TITLE "TOEIC LR Kinnojyukugo_08_499"
    INDEX 01 09:42:27
  TRACK 500 AUDIO
    TITLE "TOEIC LR Kinnojyukugo_08_500"
    INDEX 01 09:43:03
  TRACK 501 AUDIO
    TITLE "TOEIC LR Kinnojyukugo_08_501"
    INDEX 01 09:44:51
  TRACK 502 AUDIO
    TITLE "TOEIC LR Kinnojyukugo_08_502"
    INDEX 01 09:45:25
  TRACK 503 AUDIO
    TITLE "TOEIC LR Kinnojyukugo_08_503"
    INDEX 01 09:46:58
  TRACK 504 AUDIO
    TITLE "TOEIC LR Kinnojyukugo_08_504"
    INDEX 01 09:47:45
  TRACK 505 AUDIO
    TITLE "TOEIC LR Kinnojyukugo_08_505"
    INDEX 01 09:49:15
  TRACK 506 AUDIO
    TITLE "TOEIC LR Kinnojyukugo_08_506"
    INDEX 01 09:50:28
  TRACK 507 AUDIO
    TITLE "TOEIC LR Kinnojyukugo_08_507"
    INDEX 01 09:51:43
  TRACK 508 AUDIO
    TITLE "TOEIC LR Kinnojyukugo_08_508"
    INDEX 01 09:52:19
  TRACK 509 AUDIO
    TITLE "TOEIC LR Kinnojyukugo_08_509"
    INDEX 01 09:53:68
  TRACK 510 AUDIO
    TITLE "TOEIC LR Kinnojyukugo_08_510"
    INDEX 01 09:54:34
  TRACK 511 AUDIO
    TITLE "TOEIC LR Kinnojyukugo_08_511"
    INDEX 01 09:56:11
  TRACK 512 AUDIO
    TITLE "TOEIC LR Kinnojyukugo_08_512"
    INDEX 01 09:56:60
  TRACK 513 AUDIO
    TITLE "TOEIC LR Kinnojyukugo_08_513"
    INDEX 01 09:58:45
  TRACK 514 AUDIO
    TITLE "TOEIC LR Kinnojyukugo_08_514"
    INDEX 01 09:59:58
  TRACK 515 AUDIO
    TITLE "TOEIC LR Kinnojyukugo_08_515"
    INDEX 01 10:00:70
  TRACK 516 AUDIO
    TITLE "TOEIC LR Kinnojyukugo_08_516"
    INDEX 01 10:01:47
  TRACK 517 AUDIO
    TITLE "TOEIC LR Kinnojyukugo_08_517"
    INDEX 01 10:03:21
  TRACK 518 AUDIO
    TITLE "TOEIC LR Kinnojyukugo_08_518"
    INDEX 01 10:03:70
  TRACK 519 AUDIO
    TITLE "TOEIC LR Kinnojyukugo_08_519"
    INDEX 01 10:05:61
  TRACK 520 AUDIO
    TITLE "TOEIC LR Kinnojyukugo_08_520"
    INDEX 01 10:06:37
  TRACK 521 AUDIO
    TITLE "TOEIC LR Kinnojyukugo_08_521"
    INDEX 01 10:08:01
  TRACK 522 AUDIO
    TITLE "TOEIC LR Kinnojyukugo_08_522"
    INDEX 01 10:09:12
  TRACK 523 AUDIO
    TITLE "TOEIC LR Kinnojyukugo_08_523"
    INDEX 01 10:10:25
  TRACK 524 AUDIO
    TITLE "TOEIC LR Kinnojyukugo_08_524"
    INDEX 01 10:11:03
  TRACK 525 AUDIO
    TITLE "TOEIC LR Kinnojyukugo_08_525"
    INDEX 01 10:12:57
  TRACK 526 AUDIO
    TITLE "TOEIC LR Kinnojyukugo_08_526"
    INDEX 01 10:13:33
  TRACK 527 AUDIO
    TITLE "TOEIC LR Kinnojyukugo_08_527"
    INDEX 01 10:15:04
  TRACK 528 AUDIO
    TITLE "TOEIC LR Kinnojyukugo_08_528"
    INDEX 01 10:15:55
  TRACK 529 AUDIO
    TITLE "TOEIC LR Kinnojyukugo_08_529"
    INDEX 01 10:17:31
  TRACK 530 AUDIO
    TITLE "TOEIC LR Kinnojyukugo_08_530"
    INDEX 01 10:18:46
  TRACK 531 AUDIO
    TITLE "TOEIC LR Kinnojyukugo_08_531"
    INDEX 01 10:19:59
  TRACK 532 AUDIO
    TITLE "TOEIC LR Kinnojyukugo_08_532"
    INDEX 01 10:20:33
  TRACK 533 AUDIO
    TITLE "TOEIC LR Kinnojyukugo_08_533"
    INDEX 01 10:22:14
  TRACK 534 AUDIO
    TITLE "TOEIC LR Kinnojyukugo_08_534"
    INDEX 01 10:22:67
  TRACK 535 AUDIO
    TITLE "TOEIC LR Kinnojyukugo_08_535"
    INDEX 01 10:24:35
  TRACK 536 AUDIO
    TITLE "TOEIC LR Kinnojyukugo_08_536"
    INDEX 01 10:25:11
  TRACK 537 AUDIO
    TITLE "TOEIC LR Kinnojyukugo_08_537"
    INDEX 01 10:26:53
  TRACK 538 AUDIO
    TITLE "TOEIC LR Kinnojyukugo_08_538"
    INDEX 01 10:27:66
  TRACK 539 AUDIO
    TITLE "TOEIC LR Kinnojyukugo_08_539"
    INDEX 01 10:29:05
  TRACK 540 AUDIO
    TITLE "TOEIC LR Kinnojyukugo_08_540"
    INDEX 01 10:29:57
  TRACK 541 AUDIO
    TITLE "TOEIC LR Kinnojyukugo_08_541"
    INDEX 01 10:31:33
  TRACK 542 AUDIO
    TITLE "TOEIC LR Kinnojyukugo_08_542"
    INDEX 01 10:32:09
  TRACK 543 AUDIO
    TITLE "TOEIC LR Kinnojyukugo_08_543"
    INDEX 01 10:33:67
  TRACK 544 AUDIO
    TITLE "TOEIC LR Kinnojyukugo_08_544"
    INDEX 01 10:34:45
  TRACK 545 AUDIO
    TITLE "TOEIC LR Kinnojyukugo_08_545"
    INDEX 01 10:36:26
  TRACK 546 AUDIO
    TITLE "TOEIC LR Kinnojyukugo_08_546"
    INDEX 01 10:37:39
  TRACK 547 AUDIO
    TITLE "TOEIC LR Kinnojyukugo_08_547"
    INDEX 01 10:38:60
  TRACK 548 AUDIO
    TITLE "TOEIC LR Kinnojyukugo_08_548"
    INDEX 01 10:39:36
  TRACK 549 AUDIO
    TITLE "TOEIC LR Kinnojyukugo_08_549"
    INDEX 01 10:41:16
  TRACK 550 AUDIO
    TITLE "TOEIC LR Kinnojyukugo_08_550"
    INDEX 01 10:41:69
  TRACK 551 AUDIO
    TITLE "TOEIC LR Kinnojyukugo_08_551"
    INDEX 01 10:44:24
  TRACK 552 AUDIO
    TITLE "TOEIC LR Kinnojyukugo_08_552"
    INDEX 01 10:44:73
  TRACK 553 AUDIO
    TITLE "TOEIC LR Kinnojyukugo_08_553"
    INDEX 01 10:47:20
